<svg xmlns="http://www.w3.org/2000/svg" viewBox="0 0 1200 450" width="1200" height="450">
<defs>
  <linearGradient id="bg" x1="0" y1="0" x2="1" y2="1">
    <stop offset="0" stop-color="#0f0922"/>
    <stop offset="0.5" stop-color="#1a0f40"/>
    <stop offset="1" stop-color="#2a1463"/>
  </linearGradient>
  <radialGradient id="glow" cx="0.8" cy="0.5" r="0.55">
    <stop offset="0" stop-color="#2698ba" stop-opacity="0.42"/>
    <stop offset="1" stop-color="#2698ba" stop-opacity="0"/>
  </radialGradient>
  <linearGradient id="accent" x1="0" y1="0" x2="1" y2="1">
    <stop offset="0" stop-color="#e14fd6"/>
    <stop offset="1" stop-color="#3cc6ee"/>
  </linearGradient>
  <linearGradient id="accentV" x1="0" y1="1" x2="0" y2="0">
    <stop offset="0" stop-color="#3cc6ee"/>
    <stop offset="1" stop-color="#e14fd6"/>
  </linearGradient>
  <pattern id="dots" width="28" height="28" patternUnits="userSpaceOnUse">
    <circle cx="2" cy="2" r="1.3" fill="#ffffff" opacity="0.07"/>
  </pattern>
  
</defs>
<rect width="1200" height="450" fill="url(#bg)"/>
<rect width="1200" height="450" fill="url(#dots)"/>
<rect width="1200" height="450" fill="url(#glow)"/>

<circle cx="952" cy="327" r="2.2" fill="#ffffff" opacity="0.6"/>
<circle cx="971" cy="238" r="1.6" fill="#ffffff" opacity="0.25"/>
<circle cx="969" cy="393" r="1.2" fill="#ffffff" opacity="0.4"/>
<circle cx="856" cy="119" r="2.2" fill="#ffffff" opacity="0.25"/>
<circle cx="922" cy="21" r="1.2" fill="#ffffff" opacity="0.4"/>
<circle cx="736" cy="400" r="1.6" fill="#ffffff" opacity="0.25"/>
<circle cx="1040" cy="45" r="2.2" fill="#ffffff" opacity="0.6"/>
<circle cx="840" cy="71" r="1.2" fill="#ffffff" opacity="0.25"/>
<circle cx="1047" cy="418" r="1.2" fill="#ffffff" opacity="0.25"/>
<circle cx="742" cy="419" r="2.2" fill="#ffffff" opacity="0.6"/>
<circle cx="954" cy="91" r="2.2" fill="#ffffff" opacity="0.25"/>
<circle cx="1169" cy="390" r="1.6" fill="#ffffff" opacity="0.25"/>
<circle cx="788" cy="85" r="1.2" fill="#ffffff" opacity="0.4"/>
<circle cx="601" cy="142" r="2.2" fill="#ffffff" opacity="0.6"/>
<circle cx="562" cy="300" r="1.6" fill="#ffffff" opacity="0.25"/>
<circle cx="755" cy="359" r="1.6" fill="#ffffff" opacity="0.6"/>
<circle cx="759" cy="217" r="2.2" fill="#ffffff" opacity="0.25"/>
<circle cx="596" cy="425" r="1.2" fill="#ffffff" opacity="0.6"/>
<circle cx="785" cy="185" r="2.2" fill="#ffffff" opacity="0.4"/>
<circle cx="791" cy="258" r="1.2" fill="#ffffff" opacity="0.4"/>
<circle cx="589" cy="91" r="1.2" fill="#ffffff" opacity="0.25"/>
<circle cx="1036" cy="405" r="1.6" fill="#ffffff" opacity="0.4"/>
<circle cx="883" cy="390" r="1.6" fill="#ffffff" opacity="0.4"/>
<circle cx="628" cy="329" r="1.6" fill="#ffffff" opacity="0.4"/>
<circle cx="583" cy="412" r="1.2" fill="#ffffff" opacity="0.25"/>
<circle cx="775" cy="272" r="1.2" fill="#ffffff" opacity="0.4"/>
<g stroke="#6fd3f5" stroke-width="2.2" fill="none" stroke-opacity="0.55">
<path d="M854 111.0 L854 93.0 L854 67.0"/>
<path d="M901 111.0 L901 93.0 L861 53.0"/>
<path d="M925 111.0 L925 93.0 L965 63.0"/>
<path d="M949 111.0 L949 93.0 L949 50.0"/>
<path d="M972 111.0 L972 93.0 L932 41.0"/>
<path d="M854 345.0 L854 363.0 L894 383.0"/>
<path d="M925 345.0 L925 363.0 L925 406.0"/>
<path d="M949 345.0 L949 363.0 L909 399.0"/>
<path d="M972 345.0 L972 363.0 L1012 391.0"/>
<path d="M996 345.0 L996 363.0 L1036 392.0"/>
<path d="M808.0 157 L790.0 157 L688.0 187"/>
<path d="M808.0 180 L790.0 180 L751.0 210"/>
<path d="M808.0 204 L790.0 204 L690.0 204"/>
<path d="M808.0 252 L790.0 252 L712.0 252"/>
<path d="M808.0 276 L790.0 276 L735.0 306"/>
<path d="M808.0 299 L790.0 299 L748.0 329"/>
<path d="M1042.0 157 L1060.0 157 L1123.0 157"/>
<path d="M1042.0 204 L1060.0 204 L1099.0 234"/>
<path d="M1042.0 228 L1060.0 228 L1140.0 228"/>
<path d="M1042.0 252 L1060.0 252 L1123.0 252"/>
<path d="M1042.0 276 L1060.0 276 L1134.0 246"/>
<path d="M1042.0 299 L1060.0 299 L1128.0 299"/>
</g>
<circle cx="854" cy="67" r="4.5" fill="#1a0f40" stroke="#6fd3f5" stroke-width="2"/>
<circle cx="861" cy="53" r="4.5" fill="#1a0f40" stroke="#6fd3f5" stroke-width="2"/>
<circle cx="965" cy="63" r="4.5" fill="#1a0f40" stroke="#6fd3f5" stroke-width="2"/>
<circle cx="949" cy="50" r="4.5" fill="#1a0f40" stroke="#6fd3f5" stroke-width="2"/>
<circle cx="932" cy="41" r="4.5" fill="#1a0f40" stroke="#6fd3f5" stroke-width="2"/>
<circle cx="894" cy="383" r="4.5" fill="#1a0f40" stroke="#6fd3f5" stroke-width="2"/>
<circle cx="925" cy="406" r="4.5" fill="#1a0f40" stroke="#6fd3f5" stroke-width="2"/>
<circle cx="909" cy="399" r="4.5" fill="#1a0f40" stroke="#6fd3f5" stroke-width="2"/>
<circle cx="1012" cy="391" r="4.5" fill="#1a0f40" stroke="#6fd3f5" stroke-width="2"/>
<circle cx="1036" cy="392" r="4.5" fill="#1a0f40" stroke="#6fd3f5" stroke-width="2"/>
<circle cx="688" cy="187" r="4.5" fill="#1a0f40" stroke="#6fd3f5" stroke-width="2"/>
<circle cx="751" cy="210" r="4.5" fill="#1a0f40" stroke="#6fd3f5" stroke-width="2"/>
<circle cx="690" cy="204" r="4.5" fill="#1a0f40" stroke="#6fd3f5" stroke-width="2"/>
<circle cx="712" cy="252" r="4.5" fill="#1a0f40" stroke="#6fd3f5" stroke-width="2"/>
<circle cx="735" cy="306" r="4.5" fill="#1a0f40" stroke="#6fd3f5" stroke-width="2"/>
<circle cx="748" cy="329" r="4.5" fill="#1a0f40" stroke="#6fd3f5" stroke-width="2"/>
<circle cx="1123" cy="157" r="4.5" fill="#1a0f40" stroke="#6fd3f5" stroke-width="2"/>
<circle cx="1099" cy="234" r="4.5" fill="#1a0f40" stroke="#6fd3f5" stroke-width="2"/>
<circle cx="1140" cy="228" r="4.5" fill="#1a0f40" stroke="#6fd3f5" stroke-width="2"/>
<circle cx="1123" cy="252" r="4.5" fill="#1a0f40" stroke="#6fd3f5" stroke-width="2"/>
<circle cx="1134" cy="246" r="4.5" fill="#1a0f40" stroke="#6fd3f5" stroke-width="2"/>
<circle cx="1128" cy="299" r="4.5" fill="#1a0f40" stroke="#6fd3f5" stroke-width="2"/>
<g fill="#9fe6ff" opacity="0.85">
<rect x="849" y="111.0" width="10" height="22" rx="2"/>
<rect x="849" y="323.0" width="10" height="22" rx="2"/>
<rect x="808.0" y="152" width="22" height="10" rx="2"/>
<rect x="1020.0" y="152" width="22" height="10" rx="2"/>
<rect x="872" y="111.0" width="10" height="22" rx="2"/>
<rect x="872" y="323.0" width="10" height="22" rx="2"/>
<rect x="808.0" y="176" width="22" height="10" rx="2"/>
<rect x="1020.0" y="176" width="22" height="10" rx="2"/>
<rect x="896" y="111.0" width="10" height="22" rx="2"/>
<rect x="896" y="323.0" width="10" height="22" rx="2"/>
<rect x="808.0" y="199" width="22" height="10" rx="2"/>
<rect x="1020.0" y="199" width="22" height="10" rx="2"/>
<rect x="920" y="111.0" width="10" height="22" rx="2"/>
<rect x="920" y="323.0" width="10" height="22" rx="2"/>
<rect x="808.0" y="223" width="22" height="10" rx="2"/>
<rect x="1020.0" y="223" width="22" height="10" rx="2"/>
<rect x="944" y="111.0" width="10" height="22" rx="2"/>
<rect x="944" y="323.0" width="10" height="22" rx="2"/>
<rect x="808.0" y="247" width="22" height="10" rx="2"/>
<rect x="1020.0" y="247" width="22" height="10" rx="2"/>
<rect x="968" y="111.0" width="10" height="22" rx="2"/>
<rect x="968" y="323.0" width="10" height="22" rx="2"/>
<rect x="808.0" y="270" width="22" height="10" rx="2"/>
<rect x="1020.0" y="270" width="22" height="10" rx="2"/>
<rect x="991" y="111.0" width="10" height="22" rx="2"/>
<rect x="991" y="323.0" width="10" height="22" rx="2"/>
<rect x="808.0" y="294" width="22" height="10" rx="2"/>
<rect x="1020.0" y="294" width="22" height="10" rx="2"/>
</g>
<rect x="830.0" y="133.0" width="190" height="190" rx="18" fill="#221655" stroke="#6fd3f5" stroke-width="3"/>
<rect x="870" y="173" width="110" height="110" rx="10" fill="url(#accent)" opacity="0.9"/>
<g stroke="#ffffff" stroke-opacity="0.35" stroke-width="1.5">
<line x1="897.5" y1="173" x2="897.5" y2="283"/>
<line x1="870" y1="200.5" x2="980" y2="200.5"/>
<line x1="925.0" y1="173" x2="925.0" y2="283"/>
<line x1="870" y1="228.0" x2="980" y2="228.0"/>
<line x1="952.5" y1="173" x2="952.5" y2="283"/>
<line x1="870" y1="255.5" x2="980" y2="255.5"/>
</g>
<circle cx="1105" cy="105" r="46" fill="#e14fd6" opacity="0.12"/>
<circle cx="1105" cy="105" r="34" fill="none" stroke="#e14fd6" stroke-width="3"/>
<circle cx="1105" cy="105" r="6" fill="#e14fd6"/>
<g stroke="#e14fd6" stroke-width="3" stroke-linecap="round"><line x1="1105" y1="55" x2="1105" y2="67"/><line x1="1105" y1="143" x2="1105" y2="155"/><line x1="1055" y1="105" x2="1067" y2="105"/><line x1="1143" y1="105" x2="1155" y2="105"/></g>
<path d="M1079 131 L965 188" stroke="#e14fd6" stroke-width="2" stroke-dasharray="5 6" opacity="0.7"/>
</svg>